# xmcd
#
# Track frame offsets:
#	150
#	16841
#	32807
#	50055
#	64280
#	85452
#	103931
#	120824
#	138927
#	155954
#	170521
#	185748
#
# Disc length: 2669 seconds
# Revision: 3
# Processed by: cddbd v1.5.2PL0 Copyright (c) Steve Scherf et al.
# Submitted via: dBpowerAMP V12.0
#
DISCID=a90a6b0c
DTITLE=Tom Corbett - Pickin' on Petty - A Bluegrass Tribute To Tom Petty
DYEAR=2000
DGENRE=Bluegrass
TTITLE0=Breakdown
TTITLE1=I Won't Back Down
TTITLE2=Here Comes My Girl
TTITLE3=I Need to Know
TTITLE4=You Got Lucky
TTITLE5=Free Fallin'
TTITLE6=Refugee
TTITLE7=Don't Do Me Like That
TTITLE8=Stop Draggin' My Heart Around
TTITLE9=American Girl
TTITLE10=Don't Come Around Here No More
TTITLE11=Even the Losers
EXTD=
EXTT0=
EXTT1=
EXTT2=
EXTT3=
EXTT4=
EXTT5=
EXTT6=
EXTT7=
EXTT8=
EXTT9=
EXTT10=
EXTT11=
PLAYORDER=
